<svg xmlns="http://www.w3.org/2000/svg" viewBox="0 0 32 32">
  <!-- 背景 -->
  <rect width="32" height="32" rx="6" fill="#0a6abf"/>

  <!-- 煙突 -->
  <rect x="17" y="9" width="4" height="7" rx="1" fill="#ffffff"/>
  <rect x="16" y="8" width="6" height="2" rx="1" fill="#e0e0e0"/>

  <!-- 船体上部（客室） -->
  <rect x="7" y="14" width="18" height="5" rx="1" fill="#ffffff"/>
  <!-- 窓 -->
  <rect x="9"  y="16" width="2" height="2" rx="0.5" fill="#0a6abf"/>
  <rect x="13" y="16" width="2" height="2" rx="0.5" fill="#0a6abf"/>
  <rect x="19" y="16" width="2" height="2" rx="0.5" fill="#0a6abf"/>

  <!-- 船体下部（hull） -->
  <path d="M5 19 H27 L24 25 H8 Z" fill="#e8f4ff"/>
  <path d="M5 19 H27 L24 25 H8 Z" fill="none" stroke="#c0d8f0" stroke-width="0.5"/>

  <!-- 海の波 -->
  <path d="M2 26 Q6 24 10 26 Q14 28 18 26 Q22 24 26 26 Q29 27.5 30 26" fill="none" stroke="#7ec8f0" stroke-width="1.5" stroke-linecap="round"/>
</svg>
